<svg height="48pt" viewBox="0 0 48 48" width="48pt" xmlns="http://www.w3.org/2000/svg" xmlns:xlink="http://www.w3.org/1999/xlink"><linearGradient id="a" gradientTransform="matrix(47 0 0 35.567 .5 6.216)" gradientUnits="userSpaceOnUse" x1="0" x2=".907488" y1=".5" y2=".920078"><stop offset=".01666666667" stop-color="#f2e73f"/><stop offset=".84583333333" stop-color="#5eefe5"/></linearGradient><path d="m23.32 6.216c-.333.008-.658.103-.943.276l-20.959 12.702c-.57.346-.918.964-.918 1.63v8.892c0 .73.417 1.396 1.074 1.715l20.96 10.162c.602.292 1.313.246 1.873-.119l17.98-10.465 1.349 1.997 1.883-3.868 1.881-3.868-4.29.306-4.289.302 1.334 1.973-17.029 9.844-18.915-9.172v-6.624l19.128-11.594 15.817 8.162-16.047 10.351-13.139-6.02c-.637-.293-1.392-.012-1.684.625l-.529 1.154c-.292.637-.012 1.392.625 1.684l14.089 6.457c.591.271 1.28.221 1.826-.131l19.689-12.703c1.229-.794 1.141-2.62-.159-3.292l-19.689-10.162" fill="url(#a)"/></svg>